<svg width="24" height="24" viewBox="0 0 24 24" fill="none" xmlns="http://www.w3.org/2000/svg">
<path fill-rule="evenodd" clip-rule="evenodd" d="M8.09619 13.0459L7.38909 12.3388L5.62132 14.1066C4.44975 15.2782 4.44975 17.1777 5.62132 18.3492C6.79289 19.5208 8.69239 19.5208 9.86396 18.3492L13.3995 14.8137C14.5711 13.6421 14.5711 11.7426 13.3995 10.5711L12.6924 11.2782C13.4734 12.0592 13.4734 13.3255 12.6924 14.1066L9.15685 17.6421C8.37581 18.4232 7.10948 18.4232 6.32843 17.6421C5.54738 16.8611 5.54738 15.5947 6.32843 14.8137L8.09619 13.0459ZM15.5208 11.2782L16.2279 11.9853L17.9957 10.2175C19.1673 9.04592 19.1673 7.14643 17.9957 5.97486C16.8241 4.80328 14.9246 4.80328 13.753 5.97486L10.2175 9.51039C9.04594 10.682 9.04594 12.5815 10.2175 13.753L10.9246 13.0459C10.1436 12.2649 10.1436 10.9985 10.9246 10.2175L14.4602 6.68196C15.2412 5.90092 16.5075 5.90092 17.2886 6.68196C18.0696 7.46301 18.0696 8.72934 17.2886 9.51039L15.5208 11.2782Z" fill="currentColor"/>
</svg>
