<svg width="28" height="28" viewBox="0 0 28 28" fill="none" xmlns="http://www.w3.org/2000/svg">
<path fill-rule="evenodd" clip-rule="evenodd" d="M7 16.5C5.61929 16.5 4.5 15.3807 4.5 14C4.5 12.6193 5.61929 11.5 7 11.5C8.38071 11.5 9.5 12.6193 9.5 14C9.5 15.3807 8.38071 16.5 7 16.5ZM14 16.5C12.6193 16.5 11.5 15.3807 11.5 14C11.5 12.6193 12.6193 11.5 14 11.5C15.3807 11.5 16.5 12.6193 16.5 14C16.5 15.3807 15.3807 16.5 14 16.5ZM18.5 14C18.5 15.3807 19.6193 16.5 21 16.5C22.3807 16.5 23.5 15.3807 23.5 14C23.5 12.6193 22.3807 11.5 21 11.5C19.6193 11.5 18.5 12.6193 18.5 14ZM22.5 14C22.5 14.8284 21.8284 15.5 21 15.5C20.1716 15.5 19.5 14.8284 19.5 14C19.5 13.1716 20.1716 12.5 21 12.5C21.8284 12.5 22.5 13.1716 22.5 14ZM15.5 14C15.5 14.8284 14.8284 15.5 14 15.5C13.1716 15.5 12.5 14.8284 12.5 14C12.5 13.1716 13.1716 12.5 14 12.5C14.8284 12.5 15.5 13.1716 15.5 14ZM8.5 14C8.5 14.8284 7.82843 15.5 7 15.5C6.17157 15.5 5.5 14.8284 5.5 14C5.5 13.1716 6.17157 12.5 7 12.5C7.82843 12.5 8.5 13.1716 8.5 14Z"  fill="currentColor"/>
</svg>
