<svg width="24" height="24" viewBox="0 0 24 24" fill="none" xmlns="http://www.w3.org/2000/svg">
<path opacity="0.1" d="M12 20C7.58172 20 4 16.4183 4 12C4 7.58172 7.58172 4 12 4C16.4183 4 20 7.58172 20 12C20 16.4183 16.4183 20 12 20Z" fill="#058527"/>
<path fill-rule="evenodd" clip-rule="evenodd" d="M12 21C16.9706 21 21 16.9706 21 12C21 7.02944 16.9706 3 12 3C7.02944 3 3 7.02944 3 12C3 16.9706 7.02944 21 12 21ZM12 20C7.58172 20 4 16.4183 4 12C4 7.58172 7.58172 4 12 4C16.4183 4 20 7.58172 20 12C20 16.4183 16.4183 20 12 20ZM7.64645 11.8964C7.84171 11.7012 8.15829 11.7012 8.35355 11.8964L10.5 14.0429L15.6464 8.89645C15.8417 8.70118 16.1583 8.70118 16.3536 8.89645C16.5488 9.09171 16.5488 9.40829 16.3536 9.60355L10.8536 15.1036C10.6583 15.2988 10.3417 15.2988 10.1464 15.1036L7.64645 12.6036C7.45118 12.4083 7.45118 12.0917 7.64645 11.8964Z" fill="#058527"/>
</svg>
