<svg width="24" height="24" viewBox="0 0 24 24" fill="none" xmlns="http://www.w3.org/2000/svg">
<path fill-rule="evenodd" clip-rule="evenodd" d="M12 3C7.02944 3 3 7.02944 3 12C3 16.9706 7.02944 21 12 21C16.9706 21 21 16.9706 21 12C21 7.02944 16.9706 3 12 3ZM2 12C2 6.47715 6.47715 2 12 2C17.5228 2 22 6.47715 22 12C22 17.5228 17.5228 22 12 22C6.47715 22 2 17.5228 2 12Z"  fill="currentColor"/>
<path fill-rule="evenodd" clip-rule="evenodd" d="M16.7212 9.06556C16.9165 9.26083 16.9165 9.57741 16.7212 9.77267L11.0594 15.4344C10.8642 15.6297 10.5476 15.6297 10.3523 15.4344L7.7788 12.8609C7.58354 12.6656 7.58354 12.3491 7.7788 12.1538C7.97406 11.9585 8.29064 11.9585 8.48591 12.1538L10.7059 14.3738L16.0141 9.06556C16.2094 8.8703 16.5259 8.8703 16.7212 9.06556Z"  fill="currentColor"/>
</svg>
